# xmcd
#
# Track frame offsets:
#	150
#	17317
#	35644
#	53732
#	71635
#	92600
#	108337
#	129163
#	142612
#	167538
#	190260
#	215661
#	231666
#	253995
#	267691
#	289150
#	304545
#	318758
#	334908
#
# Disc length: 4762 seconds
# Revision: 0
# Processed by: cddbd v1.5.2PL0 Copyright (c) Steve Scherf et al.
# Submitted via: dBpowerAMP V12.0
#
DISCID=12129813
DTITLE=Various Artist - Gnadenlos Sommer Folge7 CD2
DYEAR=2004
DGENRE=Discofox
TTITLE0=Daniel Beck - Mädchen mit dem blonden Haar (Single Cut)
TTITLE1=Francesco Napoli - Sexy Lady
TTITLE2=Pierre Mertien - Kein Stern glüht eine Nacht (Dance Edit)
TTITLE3=Olaf Henning - Herzdame (Maxi Version)
TTITLE4=Oliver Lukas - Julie (Extended Alternativ Mix)
TTITLE5=Nico Gemba - Gegen den Wind (Stärke 6 Mix)
TTITLE6=Mike Bauhaus - Amore mio (Remix)
TTITLE7=Tommy Fischer - Nicht noch Mal
TTITLE8=Oliver Frank - 7 Wochen (Italienische Sehnsucht Part II) (Remix)
TTITLE9=Mike Bauhaus - Der Himmel kann warten (Maxi Edit)
TTITLE10=Sandy Wagner - Hier spricht die Polizei (Party Mix)
TTITLE11=Nadine Norell - Teil mit mir die Nacht
TTITLE12=Nico Gemba - Nie mehr ein Casanova (Libido Maxi Mix)
TTITLE13=Frank Marin - Unsere Fahrt ist jetzt vorbei
TTITLE14=Udo Sommer - Dein Ex (Maxi Edit)
TTITLE15=Moden Talking feat. Eric Singleton - You are not alone (Video Version)
TTITLE16=Sandy Wagner - Ich schick' dich in die Wüste
TTITLE17=Tommy Fischer - Du bist nicht allein
TTITLE18=Peter Rafael - Viva L'Amor (Maxi Version)
EXTD=
EXTT0=
EXTT1=
EXTT2=
EXTT3=
EXTT4=
EXTT5=
EXTT6=
EXTT7=
EXTT8=
EXTT9=
EXTT10=
EXTT11=
EXTT12=
EXTT13=
EXTT14=
EXTT15=
EXTT16=
EXTT17=
EXTT18=
PLAYORDER=
